<svg width="28" height="28" viewBox="0 0 28 28" fill="none" xmlns="http://www.w3.org/2000/svg">
<path d="M2.33461 1.1665H21.0009C21.3103 1.1665 21.6071 1.28942 21.8258 1.5082C22.0446 1.72699 22.1675 2.02373 22.1675 2.33315V20.9994C22.1675 21.3088 22.0446 21.6056 21.8258 21.8244C21.6071 22.0431 21.3103 22.1661 21.0009 22.1661H2.33461C2.02519 22.1661 1.72846 22.0431 1.50967 21.8244C1.29089 21.6056 1.16797 21.3088 1.16797 20.9994V2.33315C1.16797 2.02373 1.29089 1.72699 1.50967 1.5082C1.72846 1.28942 2.02519 1.1665 2.33461 1.1665Z" fill="#D0D3FF"/>
<path d="M0 2.3333V20.9996C0 21.6184 0.245823 22.2119 0.683408 22.6495C1.12098 23.087 1.71446 23.3329 2.33328 23.3329H9.33314C9.64253 23.3329 9.93933 23.2099 10.1581 22.9912C10.3768 22.7723 10.4998 22.4757 10.4998 22.1663C10.4998 21.8568 10.3768 21.5601 10.1581 21.3412C9.93933 21.1225 9.64253 20.9996 9.33314 20.9996H2.33328V2.3333L20.9996 2.33328V9.3332C20.9996 9.64259 21.1225 9.93927 21.3413 10.1581C21.56 10.3769 21.8568 10.4998 22.1662 10.4998C22.4756 10.4998 22.7724 10.3769 22.9911 10.1581C23.2099 9.93927 23.3328 9.64259 23.3328 9.3332V2.33328C23.3328 1.71446 23.087 1.12099 22.6494 0.683408C22.2118 0.245835 21.6183 0 20.9996 0L2.33328 1.16823e-05C1.71446 1.16823e-05 1.12098 0.245835 0.683408 0.683408C0.245823 1.12099 0 1.71446 0 2.3333Z" fill="#0066FF"/>
<path d="M17.5006 27.9998H26.8338C27.1432 27.9998 27.4399 27.877 27.6587 27.6581C27.8774 27.4393 28.0004 27.1426 28.0004 26.8332V17.5C28.0004 17.1906 27.8774 16.8938 27.6587 16.6751C27.4399 16.4563 27.1432 16.3334 26.8338 16.3334C26.5244 16.3334 26.2276 16.4563 26.0088 16.6751C25.79 16.8938 25.6671 17.1906 25.6671 17.5V24.0157L15.9927 14.3413C15.8844 14.233 15.7557 14.147 15.614 14.0883C15.4724 14.0296 15.3206 13.9995 15.1673 13.9995C15.014 13.9995 14.8623 14.0296 14.7206 14.0883C14.579 14.147 14.4503 14.233 14.3419 14.3413C14.2336 14.4497 14.1476 14.5784 14.0889 14.72C14.0302 14.8617 14 15.0134 14 15.1667C14 15.32 14.0302 15.4718 14.0889 15.6134C14.1476 15.7551 14.2336 15.8838 14.3419 15.9921L24.0163 25.6665H17.5006C17.1912 25.6665 16.8944 25.7895 16.6757 26.0082C16.4568 26.227 16.334 26.5238 16.334 26.8332C16.334 27.1426 16.4568 27.4393 16.6757 27.6581C16.8944 27.877 17.1912 27.9998 17.5006 27.9998Z" fill="#0066FF"/>
</svg>
