<svg width="27" height="30" viewBox="0 0 27 30" fill="none" xmlns="http://www.w3.org/2000/svg">
<path d="M3 7L13.5 3L25 6L26 15L22 23.5L13.5 28L6.5 24.5L2.5 19.5V11L3 7Z" fill="#D0D3FF"/>
<path d="M12.4467 0.192223C13.0409 -0.0320373 13.6882 -0.0600696 14.2957 0.108126L14.5533 0.192223L25.0533 4.15489C26.1463 4.56733 26.8948 5.57614 26.9898 6.73204L27 6.98182V15.0773C27 20.0721 24.2784 24.6507 19.9365 27.02L19.5374 27.2293L14.5062 29.7609C13.9431 30.0443 13.2915 30.0758 12.7088 29.8553L12.4938 29.7609L7.46262 27.2293C3.02355 24.9955 0.1714 20.4981 0.00746691 15.5302L0 15.0773V6.98182C0 5.8072 0.675743 4.74757 1.71783 4.25223L1.94662 4.15489L12.4467 0.192223ZM13.5 3.01916L3 6.98182V15.0773C3 18.9464 5.09972 22.4946 8.45293 24.3436L8.80425 24.5288L13.5 26.8918L18.1958 24.5288C21.6344 22.7986 23.8487 19.3217 23.9925 15.4763L24 15.0773V6.98182L13.5 3.01916Z" fill="#0066FF"/>
<path d="M17.7304 12.2823C17.3711 11.9059 16.7885 11.9059 16.429 12.2823L12.1977 16.7134L10.5709 15.0098L10.4843 14.9296C10.1232 14.6357 9.60126 14.6624 9.26953 15.0098C8.91016 15.3861 8.91016 15.9963 9.26953 16.3726L11.4819 18.6895L11.5702 18.7719C11.9676 19.1014 12.5464 19.0739 12.9135 18.6895L17.7304 13.6451L17.807 13.5543C18.0877 13.1763 18.0622 12.6296 17.7304 12.2823Z" fill="#0066FF"/>
</svg>
