<svg width="33" height="24" viewBox="0 0 33 24" fill="none" xmlns="http://www.w3.org/2000/svg">
<path d="M15.4344 11.2842H8.30026L3.12117 14.3711C2.91538 14.5083 2.67529 14.3025 2.70959 14.0624L3.46416 11.2499H1.16615C0.548777 11.2499 0 10.7012 0 10.0838V1.16615C0 0.548778 0.548777 0 1.16615 0H15.4344C16.0517 0 16.6005 0.548778 16.6005 1.16615V10.1524C16.6005 10.8041 16.086 11.2842 15.4344 11.2842Z" fill="#0066FF"/>
<path d="M10.8151 19.4882H20.6448L27.7904 23.732C28.0806 23.9134 28.407 23.6232 28.3708 23.333L27.3189 19.4882H30.4746C31.3451 19.4882 32.0705 18.7265 32.0705 17.8922V5.59597C32.0705 4.72544 31.3088 4 30.4746 4H10.8876C10.0171 4 9.29165 4.76171 9.29165 5.59597V17.9648C9.18283 18.799 9.94454 19.4882 10.8151 19.4882Z" fill="#D0D3FF"/>
<path d="M20.6384 10.5283C21.3276 10.5283 21.8354 11.1087 21.8354 11.7253C21.8354 12.3419 21.255 12.9223 20.6384 12.9223C19.9492 12.9223 19.4414 12.3419 19.4414 11.7253C19.4414 11.1087 19.9492 10.5283 20.6384 10.5283Z" fill="#0066FF"/>
<path d="M25.572 10.5283C26.2612 10.5283 26.769 11.1087 26.769 11.7253C26.769 12.3419 26.1886 12.9223 25.572 12.9223C24.8828 12.9223 24.375 12.3419 24.375 11.7253C24.375 11.1087 24.8828 10.5283 25.572 10.5283Z" fill="#0066FF"/>
<path d="M15.6735 10.5283C16.3627 10.5283 16.8705 11.1087 16.8705 11.7253C16.8705 12.3419 16.2902 12.9223 15.6735 12.9223C14.9844 12.9223 14.4766 12.3419 14.4766 11.7253C14.4766 11.1087 14.9844 10.5283 15.6735 10.5283Z" fill="#0066FF"/>
</svg>
