<svg width="161" height="34" viewBox="0 0 161 34" fill="none" xmlns="http://www.w3.org/2000/svg">
<rect y="4.08008" width="4.34872" height="29.2607" fill="#0019FF"/>
<rect x="4.34766" y="4.08008" width="3.83747" height="24.2613" transform="rotate(-90 4.34766 4.08008)" fill="#3448FF"/>
<rect x="4.34766" y="23.9863" width="3.83747" height="24.2613" transform="rotate(-90 4.34766 23.9863)" fill="#001AFF"/>
<rect x="28.6094" y="4.08008" width="3.66208" height="3.11795" fill="#3448FF"/>
<rect x="24.9453" y="7.19727" width="3.66208" height="3.35779" fill="#3448FF"/>
<rect width="3.66208" height="3.35779" transform="matrix(-1 0 0 1 28.6094 13.6729)" fill="#0019FF"/>
<rect x="21.2852" y="10.5557" width="3.66208" height="3.11795" fill="#3448FF"/>
<rect width="3.66208" height="3.11795" transform="matrix(-1 0 0 1 32.2734 17.0312)" fill="#0019FF"/>
<path d="M51.4884 25.6689H50.2262V6.87637H63.7176V8.02637H51.4884V16.2166H63.2969V17.3385H51.4884V25.6689ZM72.2994 25.9494C69.6628 25.9494 67.8116 24.6872 67.8116 22.4995C67.8116 20.1714 69.8311 19.3019 72.2433 19.0214L79.0591 18.2361V17.0019C79.0591 14.0007 77.7408 12.7385 74.4591 12.7385C71.1774 12.7385 69.3823 14.0007 69.3823 16.6934V16.8336H68.1482V16.6934C68.1482 13.9727 70.3921 11.6166 74.5152 11.6166C78.5542 11.6166 80.2371 14.0007 80.2371 16.8617V25.6689H79.1432V21.7702H79.0591C78.1615 24.4348 75.5811 25.9494 72.2994 25.9494ZM69.0457 22.4153C69.0457 24.0421 70.0835 24.9116 72.4957 24.9116C76.0018 24.9116 79.0591 23.1446 79.0591 19.4141V19.1617L72.6921 19.8909C70.2518 20.1434 69.0457 20.7043 69.0457 22.4153ZM87.0795 25.6689H85.8173V11.8971H86.9112V16.2446H87.0234C87.5282 13.8885 89.6038 11.6166 92.9697 11.6166C96.8965 11.6166 98.8599 14.4775 98.8599 17.8153V25.6689H97.5977V17.7312C97.5977 14.6458 96.0831 12.7385 92.7172 12.7385C89.099 12.7385 87.0795 15.1227 87.0795 19.0775V25.6689ZM112.456 25.6689H109.624C107.071 25.6689 105.388 24.6592 105.388 21.4897V12.991H102.836V11.8971H105.388V8.36295H106.65V11.8971H112.456V12.991H106.65V21.7982C106.65 23.9299 107.744 24.519 109.932 24.519H112.456V25.6689ZM123.425 25.9494C118.966 25.9494 116.049 22.8921 116.049 18.769C116.049 14.6739 118.966 11.6166 123.425 11.6166C127.857 11.6166 130.802 14.6739 130.802 18.769C130.802 22.8921 127.857 25.9494 123.425 25.9494ZM123.425 24.8275C127.577 24.8275 129.568 22.4434 129.568 18.769C129.568 15.1227 127.577 12.7385 123.425 12.7385C119.274 12.7385 117.283 15.1227 117.283 18.769C117.283 22.4434 119.274 24.8275 123.425 24.8275ZM136.933 25.6689H135.67V11.8971H136.764V16.0202H136.848C137.241 13.6922 138.924 11.6166 142.346 11.6166C145.403 11.6166 147.17 13.4958 147.647 16.2166H147.759C148.152 13.8324 149.891 11.6166 153.313 11.6166C156.931 11.6166 158.839 14.2251 158.839 17.8153V25.6689H157.604V17.7312C157.604 14.3934 156.118 12.7385 153.032 12.7385C149.442 12.7385 147.872 14.9824 147.872 19.0775V25.6689H146.637V17.7312C146.637 14.3934 145.151 12.7385 142.094 12.7385C138.447 12.7385 136.933 14.9824 136.933 19.0775V25.6689Z" fill="black"/>
<rect x="50.043" y="6.44727" width="1.63056" height="1.49507" fill="white"/>
</svg>
