<svg width="21" height="20" viewBox="0 0 21 20" fill="none" xmlns="http://www.w3.org/2000/svg">
<path opacity="0.2" d="M3.97621 16.875H14.158C14.3268 16.875 14.4887 16.8091 14.608 16.6919C14.7273 16.5747 14.7944 16.4158 14.7944 16.25V6.25C14.7944 6.08425 14.7273 5.92525 14.608 5.80806C14.4887 5.69088 14.3268 5.625 14.158 5.625H3.97621C3.80743 5.625 3.64557 5.69088 3.52623 5.80806C3.40689 5.92525 3.33984 6.08425 3.33984 6.25V16.25C3.33984 16.4158 3.40689 16.5747 3.52623 16.6919C3.64557 16.8091 3.80743 16.875 3.97621 16.875Z" fill="#7175C9"/>
<path d="M2.70312 16.25V6.24997C2.70312 5.91847 2.83721 5.60053 3.0759 5.36609C3.31458 5.13172 3.63831 4.99997 3.97585 4.99997H7.79403C7.9628 4.99997 8.12469 5.06584 8.24401 5.18303C8.36332 5.30028 8.4304 5.45922 8.4304 5.62497C8.4304 5.79078 8.36332 5.94972 8.24401 6.06697C8.12469 6.18416 7.9628 6.24997 7.79403 6.24997H3.97585V16.25L14.1577 16.25V12.5C14.1577 12.3342 14.2247 12.1753 14.3441 12.058C14.4634 11.9408 14.6253 11.875 14.794 11.875C14.9628 11.875 15.1247 11.9408 15.244 12.058C15.3633 12.1753 15.4304 12.3342 15.4304 12.5V16.25C15.4304 16.5815 15.2963 16.8995 15.0576 17.1339C14.8189 17.3683 14.4952 17.5 14.1577 17.5L3.97585 17.5C3.63831 17.5 3.31458 17.3683 3.0759 17.1339C2.83721 16.8995 2.70312 16.5815 2.70312 16.25Z" fill="white"/>
<path d="M12.2493 2.49969H17.3402C17.509 2.49969 17.6709 2.5655 17.7902 2.68275C17.9095 2.79994 17.9766 2.95894 17.9766 3.12469V8.12469C17.9766 8.29044 17.9095 8.44944 17.7902 8.56662C17.6709 8.68381 17.509 8.74969 17.3402 8.74969C17.1715 8.74969 17.0096 8.68381 16.8903 8.56662C16.7709 8.44944 16.7039 8.29044 16.7039 8.12469V4.63406L11.4268 9.81687C11.3677 9.87494 11.2975 9.921 11.2203 9.95244C11.143 9.98387 11.0602 10 10.9766 10C10.893 10 10.8102 9.98387 10.7329 9.95244C10.6557 9.921 10.5855 9.87494 10.5264 9.81687C10.4672 9.75881 10.4203 9.68987 10.3883 9.614C10.3563 9.53812 10.3398 9.45681 10.3398 9.37469C10.3398 9.29256 10.3563 9.21125 10.3883 9.13538C10.4203 9.0595 10.4672 8.99056 10.5264 8.9325L15.8034 3.74969H12.2493C12.0806 3.74969 11.9187 3.68381 11.7993 3.56662C11.68 3.44944 11.613 3.29044 11.613 3.12469C11.613 2.95894 11.68 2.79994 11.7993 2.68275C11.9187 2.5655 12.0806 2.49969 12.2493 2.49969Z" fill="white"/>
</svg>
